<?xml version="1.0" encoding="utf-8"?>
<!-- Generator: Adobe Illustrator 12.0.0, SVG Export Plug-In . SVG Version: 6.00 Build 51448)  -->
<!DOCTYPE svg PUBLIC "-//W3C//DTD SVG 1.1//EN" "http://www.w3.org/Graphics/SVG/1.1/DTD/svg11.dtd" [
	<!ENTITY ns_svg "http://www.w3.org/2000/svg">
	<!ENTITY ns_xlink "http://www.w3.org/1999/xlink">
]>
<svg  version="1.1" id="Laag_1" xmlns="&ns_svg;" xmlns:xlink="&ns_xlink;" width="266.467" height="266.455"
	 viewBox="0 0 266.467 266.455" overflow="visible" enable-background="new 0 0 266.467 266.455" xml:space="preserve">
<g>
	<rect fill="#f8f8f8" width="266.467" height="266.455"/>
	<path fill="#e0e0e0" stroke="#e0e0e0" d="M218.978,133.229c0-47.373-38.391-85.75-85.737-85.75c-47.359,0-85.75,38.377-85.75,85.75
		c0,47.347,38.39,85.75,85.75,85.75C180.586,218.979,218.978,180.576,218.978,133.229z"/>
	
		<path fill="#f8f8f8" stroke="#e0e0e0" stroke-width="0.7087" stroke-linecap="round" stroke-linejoin="round" stroke-miterlimit="500" d="
		M203.388,133.229c0-38.752-31.408-70.173-70.147-70.173c-38.752,0-70.16,31.42-70.16,70.173c0,38.725,31.407,70.146,70.16,70.146
		C171.979,203.375,203.388,171.954,203.388,133.229z"/>
	<polygon stroke="#e0e0e0" fill="#e0e0e0" stroke-width="0.7087" stroke-linecap="round" stroke-linejoin="round" stroke-miterlimit="500" points="
		18.259,257.945 121.384,120.445 138.853,180.306 242.367,42.269 242.367,78.658 257.958,78.658 257.958,8.485 190.605,28.143 
		194.967,43.102 229.892,32.923 145.083,146.012 127.627,86.124 8.511,244.947 	"/>
</g>
</svg>
